<svg id="Calque_1" data-name="Calque 1" xmlns="http://www.w3.org/2000/svg" width="631.8855" height="94.0346" viewBox="0 0 631.8855 94.0346"><defs><style>.cls-1{fill:#fff;}</style></defs><path class="cls-1" d="M631.8855,61.25c-10.0279,2.0616-20.0668,4.0718-30.0794,6.2052-5.4949,1.1708-10.9457,2.5492-16.4721,3.8471,3.731,8.3986,15.5962,10.8816,24.1029,5.3091,6.3781-4.1782,10.2335-4.3637,18.3386-.6723-5.07,10.0486-13.4609,15.401-24.1552,16.9647-16.3121,2.385-32.4975-9.1533-35.3871-24.7153-3.0979-16.6836,7.018-32.1328,23.7571-36.2823A31.4409,31.4409,0,0,1,630.1769,54.684q.3631,1.4369.59,2.903a11.8938,11.8938,0,0,0,1.1188,2.6613Zm-49.9844-1.33L614.49,52.6c-5.2518-6.7491-11.2424-8.8129-18.5284-7.6341-7.04,1.1387-12.1,6.2135-14.061,14.9539Z" transform="translate(0 0)"/><path class="cls-1" d="M310.9341,88.3322c-4.4689,5.4727-10.2905,1.9065-15.8723,2.9163-.1134-2.18-.27-3.7933-.2705-5.4062-.0153-25.8511.0633-51.7026-.0922-77.5527-.0229-3.8021.7291-5.8549,4.9135-6.1578C302.6687,1.9106,305.6655.8686,309.55,0V36.5771c10.4762-6.3693,20.5837-6.9213,30.8134-3.0045A29.57,29.57,0,0,1,355.571,46.71a30.8653,30.8653,0,0,1-4.067,36.1121C343.5275,91.4652,327.0454,98.0288,310.9341,88.3322Zm16.5826-43.4709c-9.956-.0161-18.239,7.8589-18.1839,17.288.0533,9.1022,8.41,17.2175,17.8591,17.3441,9.6064.1286,18.2021-8.1861,18.13-17.5371C345.2489,52.5543,337.253,44.8771,327.5167,44.8613Z" transform="translate(0 0)"/><path class="cls-1" d="M17.331,71.3175c4.6007,8.3034,16.2494,11.6746,23.4231,5.4368,6.8852-5.9869,12.6392-2.808,19.1716-1.3509C54.2064,89.1,37.3432,96.3069,22.1788,91.72,6.3557,86.9343-2.737,71.3588.7362,54.99,4.0484,39.3791,19.0616,29.6006,36.87,31.4545c14.0123,1.4588,26.4856,15.1761,26.1969,29.3923ZM45.9966,52.7367C42.2486,46.083,35.03,43.306,27.2742,45.0412A16.32,16.32,0,0,0,14.6186,59.7929Z" transform="translate(0 0)"/><path class="cls-1" d="M138.8816,71.547c2.5491,7.3393,16.4513,11.7591,24.0679,4.7557,6.6-6.0692,12.0723-1.7216,18.3178-1.0052-4.6322,11.3019-16.436,18.0939-30.1517,17.7566-12.13-.2983-23.97-8.9819-28.0917-20.6028C117.0005,55.47,126.56,37.3,144.1217,32.35c17.6321-4.97,36.157,5.5789,39.9748,22.7148.9144,4.1045-.03,6.2148-4.7088,7.11-12.1928,2.334-24.27,5.2762-36.3838,8.0172C141.5994,70.51,140.2539,71.0893,138.8816,71.547Zm28.713-18.8219c-4.0336-7.2125-12.4492-9.178-19.3247-7.5923-6.5479,1.51-11.3546,6.9673-12.6027,14.7143Z" transform="translate(0 0)"/><path class="cls-1" d="M231.6916,90.7807c0-10.843.1518-21.17-.0441-31.49-.184-9.6932-5.1466-14.5547-14.069-14.3011-7.5035.2133-12.1623,4.6837-12.2813,12.1975-.15,9.5007-.04,19.0056-.0427,28.5087V90.902H190.2386V32.313c5.4835,1.2252,11.4981-2.7393,16.5,3.3511,6.2112-4.9284,14.1573-5.3591,22.1307-3.83a21.0594,21.0594,0,0,1,17.2428,20.0506c.55,12.7921.1325,25.6259.1325,38.8959Z" transform="translate(0 0)"/><path class="cls-1" d="M60.211,32.6836C75.9735,31.3217,75.9655,31.3247,81.1666,44.96c3.46,9.0706,6.9469,18.1311,11.0072,28.7237,2.2129-5.5536,3.8739-9.6352,5.4684-13.7426,3.12-8.037,6.26-16.0672,9.2679-24.1464.9363-2.5151,2.2951-3.6983,5.1315-3.5234,3.9223.2419,7.8707.0607,12.5471.0607-2.6557,6.5541-4.9844,12.3526-7.3525,18.135-5.0283,12.2778-10.1558,24.5159-15.06,36.8431-1.1545,2.9021-2.7219,3.9813-5.8806,4-12.0743.0733-12.0416.1733-16.7459-11.3346C73.8375,66.002,68.0613,52.0548,62.322,38.0925,61.64,36.4336,61.0158,34.75,60.211,32.6836Z" transform="translate(0 0)"/><path class="cls-1" d="M288.18,45.493a12.4116,12.4116,0,0,1-1.8222.4593c-10.0519.6426-10.0521.6389-10.0522,10.5624V90.8366H260.7683V56.635c0-9.733,0-9.733-9.89-11.178V33.5226c.5643-.4734.7911-.83,1.0616-.8667,8.8275-1.2113,8.8281-1.2067,8.8281-10.5423V10.9679l15.5437-3.5925c0,7.1692.068,14.0567-.0343,20.9416-.0395,2.6564.7741,3.8586,3.6475,4.0537,9.0627.6154,9.0632.7243,8.664,9.8739C288.5462,43.23,288.3466,44.2079,288.18,45.493Z" transform="translate(0 0)"/><path class="cls-1" d="M540.3864,11.5662h15.1988c0,5.0845.3069,10.0457-.0886,14.95-.3752,4.6509,1.2614,6.43,5.84,5.8473a56.1384,56.1384,0,0,1,6.2979-.0373c0,4.0772.1537,7.8353-.12,11.5619-.06.82-1.5349,1.9484-2.5383,2.1926a15.7463,15.7463,0,0,1-4.9678.1293c-3.5112-.2993-4.5351,1.236-4.4908,4.6718.17,13.1477.0685,26.2988.0685,39.901H540.05V64.2965c0-3.8337-.2855-7.6944.0717-11.4945.4524-4.812-.8434-7.4038-6.1838-6.6284a14.8558,14.8558,0,0,1-3.5892-.4069V33.0828a3.686,3.686,0,0,1,1.201-.5909c8.4989-.8036,8.4966-.7957,8.502-9.2889q.003-4.75.0442-9.5C540.1,13.21,540.2247,12.7187,540.3864,11.5662Z" transform="translate(0 0)"/><path class="cls-1" d="M398.1087,31.61V46.222c-.3335.2413-.5745.564-.8424.5882-13.682,1.2364-16.86,4.7412-16.8635,18.64-.0019,8.3145,0,16.629,0,25.3621H366.041V33.2167c8.319-2.4677,13.6775-1.2886,14.8508,3.1737Z" transform="translate(0 0)"/><path class="cls-1" d="M403.55,46.0859c6.8423-12.35,23.2437-16.3774,36.6243-11.8731q.8117.2732,1.6241.5844a29.57,29.57,0,0,1,15.2077,13.1371,30.8655,30.8655,0,0,1-4.067,36.112,30.064,30.064,0,0,1-3.9412,3.5567c-13.9991,10.6-34.7812,7.7576-46.3368-6.02-.2157-.2571-1.0741-1.4877-1.2428-1.7778-5.2511-9.0261-3.8179-22.8474,1.2428-31.9815C402.7081,47.74,403.5036,46.17,403.55,46.0859Zm25.4019,0A16.846,16.846,0,0,0,411.9162,62.74q-.0034.3173.0048.6345c.0532,9.1022,7.2572,17.2175,16.7067,17.344,9.6064.1287,18.2021-8.186,18.13-17.5371-.0733-9.4025-8.0692-17.0795-17.8055-17.0953Z" transform="translate(0 0)"/><path class="cls-1" d="M482.97,32.5464c0,10.8429-.1519,21.17.044,31.49.184,9.6932,5.1466,14.5547,14.0691,14.3011,7.5034-.2133,12.1623-4.6837,12.2813-12.1974.15-9.5008.04-19.0057.0426-28.5088V32.4251h15.0158V91.0143c-5.4834-1.2251-11.498,2.7393-16.5-3.3511-6.2111,4.9284-14.1572,5.3592-22.1307,3.83a21.06,21.06,0,0,1-17.2428-20.05c-.55-12.7922-.1324-25.626-.1324-38.8959Z" transform="translate(0 0)"/></svg>