<svg id="Calque_1" data-name="Calque 1" xmlns="http://www.w3.org/2000/svg" width="631.8854" height="94.0348" viewBox="0 0 631.8854 94.0348"><path d="M645.8345,356.2354c-10.0279,2.0616-20.0668,4.0718-30.0794,6.2052-5.4949,1.1708-10.9457,2.5492-16.4721,3.8471,3.731,8.3986,15.5962,10.8816,24.1029,5.3091,6.3782-4.1782,10.2335-4.3637,18.3386-.6723-5.07,10.0486-13.4609,15.401-24.1552,16.9647-16.3121,2.385-32.4975-9.1533-35.3871-24.7153-3.0979-16.6836,7.018-32.1328,23.7571-36.2823a31.4409,31.4409,0,0,1,38.7764,25.6811,11.8954,11.8954,0,0,0,1.1188,2.6613Zm-49.9844-1.33,32.5893-7.32c-5.2518-6.7491-11.2424-8.8129-18.5284-7.6341C602.8706,341.09,597.8112,346.1648,595.85,354.9052Z" transform="translate(-13.949 -294.9857)"/><path d="M324.8831,383.3179c-4.4689,5.4727-10.2905,1.9065-15.8723,2.9163-.1134-2.18-.27-3.7933-.2705-5.4062-.0153-25.8511.0633-51.7026-.0922-77.5527-.0229-3.8021.7291-5.8549,4.9135-6.1578,3.0561-.2212,6.0529-1.2632,9.9372-2.1318v36.5771c10.4762-6.3693,20.5837-6.9213,30.8134-3.0045A29.57,29.57,0,0,1,369.52,341.6957a30.8654,30.8654,0,0,1-4.067,36.1121C357.4765,386.4509,340.9944,393.0145,324.8831,383.3179Zm16.5826-43.4709c-9.956-.0161-18.239,7.8589-18.1839,17.288.0533,9.1022,8.41,17.2175,17.8591,17.3441,9.6064.1286,18.2021-8.1861,18.13-17.5371C359.1979,347.54,351.202,339.8628,341.4657,339.847Z" transform="translate(-13.949 -294.9857)"/><path d="M31.28,366.3032c4.6007,8.3034,16.2494,11.6746,23.4231,5.4368,6.8852-5.9869,12.6392-2.808,19.1716-1.3509-5.7193,13.6961-22.5825,20.9035-37.7469,16.3169C20.3047,381.92,11.212,366.3445,14.6852,349.9753c3.3122-15.6105,18.3254-25.389,36.134-23.5351,14.0123,1.4588,26.4856,15.1761,26.1969,29.3923Zm28.6656-18.5808c-3.748-6.6537-10.9669-9.4307-18.7224-7.6955a16.32,16.32,0,0,0-12.6556,14.7517Z" transform="translate(-13.949 -294.9857)"/><path d="M152.8306,366.5327c2.5491,7.3393,16.4513,11.7591,24.0679,4.7557,6.6-6.0692,12.0723-1.7216,18.3178-1.0052-4.6322,11.3019-16.436,18.0939-30.1517,17.7566-12.13-.2983-23.97-8.9819-28.0917-20.6028-6.0234-16.9811,3.5362-35.1512,21.0978-40.101,17.6321-4.97,36.157,5.5789,39.9748,22.7148.9144,4.1045-.03,6.2148-4.7088,7.11-12.1928,2.334-24.27,5.2762-36.3838,8.0172C155.5484,365.4961,154.2029,366.075,152.8306,366.5327Zm28.713-18.8219c-4.0336-7.2125-12.4492-9.178-19.3247-7.5923-6.5479,1.51-11.3546,6.9673-12.6027,14.7143Z" transform="translate(-13.949 -294.9857)"/><path d="M245.6406,385.7664c0-10.843.1518-21.17-.0441-31.49-.184-9.6932-5.1466-14.5547-14.069-14.3011-7.5035.2133-12.1623,4.6837-12.2813,12.1975-.15,9.5007-.04,19.0056-.0427,28.5087,0,1.6309,0,3.2618,0,5.2062H204.1876V327.2987c5.4835,1.2252,11.4981-2.7393,16.4995,3.3511,6.2112-4.9284,14.1573-5.3591,22.1307-3.83a21.0594,21.0594,0,0,1,17.2428,20.0506c.55,12.7921.1325,25.6259.1325,38.8959Z" transform="translate(-13.949 -294.9857)"/><path d="M74.16,327.6693c15.7625-1.3619,15.7545-1.3589,20.9556,12.2763,3.46,9.0706,6.9469,18.1311,11.0072,28.7237,2.2129-5.5536,3.8739-9.6352,5.4684-13.7426,3.12-8.037,6.26-16.0672,9.2679-24.1464.9363-2.5151,2.2951-3.6983,5.1315-3.5234,3.9223.2419,7.8707.0607,12.5471.0607-2.6557,6.5541-4.9844,12.3526-7.3525,18.135-5.0283,12.2778-10.1558,24.5159-15.06,36.8431-1.1545,2.9021-2.7219,3.9813-5.8806,4-12.0743.0733-12.0416.1733-16.7459-11.3346-5.7122-13.9734-11.4884-27.9206-17.2277-41.8829C75.5892,331.4193,74.9648,329.7361,74.16,327.6693Z" transform="translate(-13.949 -294.9857)"/><path d="M302.1293,340.4787a12.41,12.41,0,0,1-1.8222.4593c-10.0519.6426-10.0521.6389-10.0522,10.5624,0,11.3088,0,22.6175,0,34.3219H274.7173V351.6207c0-9.733,0-9.733-9.89-11.178V328.5083c.5643-.4734.7911-.83,1.0616-.8667,8.8275-1.2113,8.8281-1.2067,8.8281-10.5423V305.9536l15.5437-3.5925c0,7.1692.068,14.0567-.0343,20.9416-.0395,2.6564.7741,3.8586,3.6475,4.0537,9.0627.6154,9.0632.7243,8.664,9.8739C302.4952,338.2154,302.2956,339.1936,302.1293,340.4787Z" transform="translate(-13.949 -294.9857)"/><path d="M554.3354,306.5519h15.1988c0,5.0845.3069,10.0457-.0886,14.95-.3752,4.6509,1.2615,6.43,5.84,5.8473a56.1331,56.1331,0,0,1,6.2979-.0373c0,4.0772.1537,7.8353-.12,11.5619-.06.82-1.5349,1.9484-2.5383,2.1926a15.7456,15.7456,0,0,1-4.9678.1293c-3.5112-.2993-4.5351,1.236-4.4908,4.6718.17,13.1477.0685,26.2988.0685,39.901H553.9988V359.2822c0-3.8337-.2855-7.6944.0717-11.4945.4524-4.812-.8434-7.4038-6.1838-6.6284a14.8554,14.8554,0,0,1-3.5892-.4069V328.0685a3.6845,3.6845,0,0,1,1.201-.5909c8.4989-.8036,8.4965-.7957,8.502-9.2889q.003-4.75.0441-9.5C554.0492,308.1958,554.1737,307.7044,554.3354,306.5519Z" transform="translate(-13.949 -294.9857)"/><path d="M412.0577,326.5958v14.6119c-.3335.2413-.5745.564-.8424.5882-13.682,1.2364-16.86,4.7412-16.8635,18.64-.0019,8.3145,0,16.629,0,25.3621H379.99V328.2024c8.319-2.4677,13.6775-1.2886,14.8508,3.1737Z" transform="translate(-13.949 -294.9857)"/><path d="M417.4993,341.0716c6.8423-12.35,23.2437-16.3774,36.6243-11.8731q.8116.2731,1.6241.5844A29.57,29.57,0,0,1,470.9554,342.92a30.8655,30.8655,0,0,1-4.067,36.112,30.0673,30.0673,0,0,1-3.9412,3.5567c-13.9991,10.5995-34.7812,7.7576-46.3368-6.02-.2157-.2571-1.0742-1.4877-1.2429-1.7778-5.251-9.0261-3.8179-22.8474,1.2429-31.9815C416.6571,342.7252,417.4526,341.1559,417.4993,341.0716Zm25.4019,0A16.846,16.846,0,0,0,425.87,358.36c.0532,9.1022,7.2572,17.2175,16.7067,17.344,9.6064.1287,18.2021-8.186,18.13-17.5371C460.6334,348.7644,452.6375,341.0874,442.9012,341.0716Z" transform="translate(-13.949 -294.9857)"/><path 
d="M496.9186,327.5321c0,10.8429-.1519,21.17.044,31.49.184,9.6932,5.1466,14.5547,14.0691,14.3011,7.5034-.2133,12.1623-4.6837,12.2813-12.1974.15-9.5008.04-19.0057.0426-28.5088,0-1.6309,0-3.2618,0-5.2062h15.0158V386c-5.4834-1.2251-11.498,2.7393-16.5-3.3511-6.2111,4.9284-14.1572,5.3592-22.1307,3.83a21.06,21.06,0,0,1-17.2428-20.05c-.55-12.7922-.1324-25.626-.1324-38.8959Z"  transform="translate(-13.949 -294.9857)"/></svg>